<svg width="105" height="53" viewBox="0 0 105 53" fill="none" xmlns="http://www.w3.org/2000/svg">
<g id="svgg">
<path id="path0" fill-rule="evenodd" clip-rule="evenodd" d="M65.2937 0.0251952C65.3596 0.0351696 65.4431 0.0858288 65.4795 0.1378C65.5265 0.204996 65.5457 0.212871 65.5457 0.165624C65.5457 0.0590555 65.4509 -0.00656521 65.3071 0.000521833C65.1759 0.00708391 65.1756 0.00734639 65.2937 0.0251952ZM64.0692 0.06798C64.1112 0.0787418 64.1803 0.0787418 64.2223 0.06798C64.2643 0.0569557 64.2299 0.0477688 64.1456 0.0477688C64.0614 0.0477688 64.027 0.0569557 64.0692 0.06798ZM102.774 0.103153C101.513 0.18006 100.449 0.322851 99.1435 0.589796C98.838 0.652267 98.6734 0.691115 98.0497 0.848867C97.9175 0.882465 97.6739 0.941523 97.5085 0.980108C97.3431 1.01896 97.166 1.06673 97.1148 1.08641C97.0636 1.1061 96.9035 1.15623 96.7591 1.19797C96.6148 1.2397 96.4475 1.29351 96.3874 1.31766C96.3273 1.34181 96.2189 1.37724 96.1467 1.39641C95.989 1.4384 95.2645 1.69957 94.9378 1.83265C94.8086 1.88489 94.6637 1.94368 94.6157 1.96311C94.4989 2.01009 94.123 2.17231 93.9595 2.2458C93.8873 2.27835 93.7101 2.35762 93.5658 2.42193C93.4214 2.48624 93.2048 2.58939 93.0844 2.65107C91.5685 3.42829 91.3425 3.54955 91.2252 3.64746C91.1892 3.67738 91.1152 3.71571 91.0611 3.73224C91.0071 3.74852 90.9627 3.77739 90.9627 3.79576C90.9627 3.8144 90.8842 3.86716 90.7882 3.91336C90.6923 3.95929 90.6136 4.00916 90.6133 4.02439C90.6131 4.03935 90.5538 4.07636 90.4816 4.10628C90.4094 4.1362 90.3503 4.17794 90.3503 4.19894C90.3503 4.2202 90.3299 4.23752 90.3047 4.23752C90.253 4.23752 89.986 4.41732 89.9637 4.46719C89.9558 4.48504 89.929 4.5 89.9044 4.5C89.88 4.5 89.7852 4.55906 89.6941 4.63125C89.6028 4.70343 89.5065 4.76249 89.4799 4.76249C89.4534 4.76249 89.4316 4.77745 89.4316 4.79582C89.4316 4.8142 89.2789 4.93021 89.0925 5.05358C88.9062 5.17721 88.6983 5.32945 88.6308 5.39218C88.5636 5.45492 88.4896 5.5061 88.4668 5.5061C88.4439 5.5061 88.4253 5.52238 88.4253 5.54233C88.4253 5.56227 88.3072 5.66412 88.1628 5.76859C88.0184 5.87305 87.9003 5.9749 87.9003 5.99485C87.9003 6.01479 87.8725 6.03107 87.8384 6.03107C87.8042 6.03107 87.7699 6.04813 87.762 6.06887C87.7494 6.10089 87.4528 6.36521 86.9192 6.81904C86.7344 6.97627 85.1881 8.52256 85.1881 8.55012C85.1881 8.56298 85.1327 8.62624 85.065 8.69107C84.9973 8.7559 84.8448 8.92652 84.7259 9.07036C84.6072 9.21394 84.4681 9.37169 84.4166 9.42051C84.3652 9.46959 84.2004 9.67538 84.05 9.87828C83.8996 10.0809 83.7384 10.2875 83.6917 10.3371C83.6447 10.387 83.5741 10.4817 83.5347 10.5479C83.4953 10.614 83.4476 10.6684 83.4287 10.6684C83.4098 10.6684 83.3945 10.6888 83.3945 10.7138C83.3945 10.739 83.3743 10.7833 83.3499 10.8122C83.1908 11.0012 82.8696 11.4595 82.8696 11.4975C82.8696 11.5227 82.8494 11.5432 82.8247 11.5432C82.8 11.5432 82.7606 11.5876 82.7373 11.6416C82.6934 11.743 82.6018 11.8984 82.5633 11.9369C82.5228 11.9774 82.3609 12.2207 82.3302 12.2868C82.3134 12.323 82.2619 12.4115 82.2155 12.4837C82.169 12.5559 82.0588 12.743 81.9703 12.8995C81.8821 13.0556 81.7971 13.1937 81.7818 13.2055C81.7664 13.2176 81.685 13.3654 81.6007 13.5336C81.5165 13.7021 81.4359 13.8499 81.4214 13.8617C81.1527 14.0851 79.6274 17.8055 79.4127 18.7615C79.3938 18.8457 79.3583 18.9736 79.3339 19.0458C79.2016 19.4382 78.9754 20.3661 78.8273 21.1238C78.5092 22.752 78.3725 24.045 78.342 25.7173C78.3142 27.2583 78.2192 28.2329 78.0328 28.8928C77.9981 29.0151 77.9698 29.1529 77.9701 29.1991C77.9701 29.2451 77.9409 29.3713 77.9052 29.4795C77.8695 29.5879 77.7889 29.8535 77.7262 30.07C77.6635 30.2866 77.5842 30.5286 77.5504 30.6076C77.5165 30.6866 77.4887 30.7701 77.4887 30.7934C77.4887 30.8793 76.8249 32.2573 76.6149 32.6075C76.5427 32.7277 76.4694 32.8558 76.4524 32.8917C76.4353 32.928 76.3219 33.1017 76.2004 33.2779C76.0789 33.454 75.9597 33.6312 75.9356 33.6716C75.9114 33.712 75.8812 33.7548 75.8686 33.7669C75.8558 33.7787 75.7676 33.8968 75.6725 34.0293C75.5775 34.1616 75.4799 34.2916 75.4552 34.3181C75.4308 34.3446 75.3224 34.4724 75.2145 34.6023C74.9297 34.9457 74.0551 35.8113 73.7375 36.0644C73.5871 36.1843 73.464 36.2969 73.464 36.315C73.464 36.3332 73.4451 36.3479 73.4223 36.3479C73.3994 36.3479 73.3257 36.399 73.2582 36.4615C73.1908 36.5242 73.0128 36.6563 72.8624 36.7552C72.712 36.8542 72.5889 36.9505 72.5889 36.9697C72.5889 36.9886 72.5703 37.0041 72.5477 37.0041C72.5251 37.0041 72.333 37.1093 72.1212 37.2379C71.781 37.4445 71.4545 37.6301 71.1014 37.8172C70.9639 37.8902 70.5691 38.0642 70.2145 38.2081C70.0649 38.269 69.9079 38.3377 69.8662 38.3614C69.8244 38.3847 69.7612 38.4039 69.7255 38.4039C69.69 38.4039 69.5961 38.4312 69.5171 38.4645C69.3774 38.523 69.1924 38.5821 68.6955 38.7254C67.9067 38.9533 66.7904 39.1325 65.8738 39.179L65.3924 39.2034L65.4037 45.7437L65.415 52.284L66.2568 52.2593C68.1469 52.2037 70.1116 51.9144 71.9545 51.4199C72.075 51.3876 72.2815 51.3375 72.4138 51.3083C72.5461 51.2792 72.7233 51.2312 72.8075 51.2012C72.8918 51.1716 73.1577 51.0834 73.3981 51.0054C74.0045 50.8088 74.5546 50.617 74.7106 50.5477C74.7827 50.5154 74.9305 50.4553 75.0387 50.4141C75.2956 50.3159 75.5893 50.1891 76.1106 49.9516C76.5941 49.7311 77.7036 49.1762 77.9916 49.0108C78.136 48.9279 78.2934 48.8405 78.3417 48.8161C78.3898 48.7919 78.4677 48.7475 78.515 48.7174C78.5622 48.6874 78.6803 48.6139 78.7775 48.5541C78.8746 48.4945 78.9935 48.4215 79.0415 48.3919C79.0898 48.3622 79.1586 48.3239 79.1948 48.3063C79.2625 48.2738 79.5061 48.1108 79.5447 48.0722C79.5568 48.0601 79.6339 48.0126 79.7164 47.9667C79.7988 47.9207 79.8972 47.8575 79.9353 47.8262C79.9731 47.795 80.1418 47.6714 80.3104 47.5512C80.4786 47.4309 80.6403 47.312 80.6694 47.2868C80.6983 47.2616 80.7427 47.2409 80.7679 47.2409C80.7928 47.2409 80.8133 47.2212 80.8133 47.1971C80.8133 47.1732 80.8429 47.1535 80.8789 47.1535C80.9151 47.1535 80.9445 47.138 80.9445 47.1191C80.9445 47.1002 80.9989 47.0524 81.065 47.0131C81.1311 46.9737 81.2246 46.9049 81.2726 46.8603C81.3209 46.8157 81.4881 46.6834 81.6446 46.5658C81.801 46.4485 81.9485 46.3306 81.9727 46.3038C81.9968 46.2771 82.174 46.1196 82.3664 45.9537C82.5588 45.7875 82.7228 45.6353 82.731 45.6151C82.7389 45.5951 82.7622 45.5786 82.7824 45.5786C82.8223 45.5786 83.1397 45.2817 83.7883 44.6376C84.267 44.162 84.64 43.7609 85.1881 43.1315C85.3204 42.9795 85.4527 42.8304 85.4818 42.7999C85.5109 42.7695 85.638 42.6094 85.764 42.4445C85.89 42.2794 86.0139 42.1233 86.0391 42.0975C86.0643 42.0716 86.1341 41.9784 86.1942 41.8899C86.2546 41.8017 86.3183 41.7293 86.3364 41.729C86.3546 41.729 86.3693 41.6991 86.3693 41.6631C86.3693 41.6269 86.3889 41.5975 86.4131 41.5975C86.437 41.5975 86.4567 41.5768 86.4567 41.5511C86.4567 41.5256 86.5748 41.3497 86.7191 41.16C86.8635 40.9704 86.9816 40.7962 86.9816 40.7725C86.9816 40.7492 86.9966 40.7232 87.0144 40.7153C87.0643 40.6933 87.2441 40.426 87.2441 40.3743C87.2441 40.3494 87.2614 40.3289 87.2827 40.3289C87.3037 40.3289 87.3454 40.2699 87.3754 40.1977C87.4053 40.1255 87.447 40.0664 87.4683 40.0664C87.4893 40.0664 87.5066 40.0447 87.5066 40.0182C87.5066 39.9914 87.5617 39.888 87.6292 39.7885C87.6964 39.6887 87.7654 39.5774 87.7827 39.5415C87.7998 39.5053 87.8528 39.4168 87.9003 39.3446C87.9478 39.2724 88.0064 39.174 88.0305 39.1257C88.0547 39.0777 88.1426 38.9202 88.2258 38.7758C88.3093 38.6315 88.4297 38.4049 88.4941 38.2726C88.5581 38.1403 88.7657 37.7136 88.9555 37.3243C89.145 36.935 89.3004 36.6025 89.3004 36.5849C89.3004 36.5676 89.3595 36.4282 89.4316 36.2754C89.5038 36.1226 89.5629 35.972 89.5629 35.941C89.5629 35.9098 89.5786 35.8654 89.5978 35.8426C89.617 35.8197 89.6776 35.683 89.7322 35.5386C89.7868 35.3943 89.8595 35.2113 89.8939 35.1323C89.9283 35.0533 89.9566 34.9614 89.9566 34.9281C89.9566 34.8947 89.9839 34.8118 90.0173 34.7438C90.0831 34.6097 90.148 34.4257 90.239 34.1167C90.2708 34.0083 90.3265 33.8215 90.3624 33.7012C90.4254 33.4915 90.5055 33.2112 90.6377 32.7387C90.6716 32.6185 90.7299 32.3626 90.7672 32.1699C90.8047 31.9775 90.8575 31.7413 90.8845 31.6449C90.9113 31.5489 90.9475 31.3814 90.9648 31.2733C90.9821 31.1649 91.0173 30.968 91.0425 30.8357C91.1816 30.1118 91.3084 29.1563 91.3588 28.4516C91.4656 26.9601 91.4861 26.5546 91.4877 25.8924C91.4887 25.4952 91.5092 25.0424 91.5333 24.886C91.5578 24.7296 91.5966 24.4542 91.62 24.2736C91.6693 23.8904 91.7593 23.4151 91.8349 23.1363C91.979 22.6053 92.0237 22.4478 92.0646 22.3268C92.089 22.2546 92.1197 22.1465 92.1329 22.0864C92.146 22.0263 92.1833 21.9381 92.2158 21.8906C92.2483 21.843 92.2751 21.769 92.2751 21.726C92.2751 21.6829 92.2943 21.6134 92.3176 21.5716C92.3413 21.5299 92.4121 21.3677 92.4757 21.2112C92.6024 20.8984 93.0639 19.9337 93.1033 19.8988C93.1169 19.8868 93.167 19.7983 93.2148 19.702C93.2941 19.5419 93.4468 19.2959 93.5001 19.2426C93.5316 19.2111 93.6269 19.0568 93.6618 18.9801C93.6784 18.9442 93.7127 18.8922 93.7382 18.8646C93.7637 18.8371 93.9206 18.6255 94.087 18.3943C94.2535 18.1633 94.406 17.974 94.4262 17.974C94.4461 17.974 94.4624 17.9559 94.4624 17.9339C94.4624 17.8147 96.0969 16.1805 96.216 16.1805C96.2381 16.1805 96.2562 16.164 96.2562 16.144C96.2562 16.1238 96.4452 15.9713 96.6764 15.8049C96.9077 15.6385 97.1227 15.4778 97.1544 15.4476C97.1862 15.4175 97.2216 15.393 97.2329 15.393C97.2442 15.393 97.3589 15.3219 97.4875 15.235C97.6164 15.1482 97.761 15.0592 97.8091 15.0374C97.8573 15.0156 97.9558 14.9602 98.028 14.9143C98.2193 14.7925 99.2566 14.2814 99.5372 14.1707C99.6695 14.1187 99.817 14.0596 99.8653 14.0397C99.9638 13.999 100.227 13.9011 100.456 13.82C100.54 13.7901 100.678 13.7512 100.762 13.7336C100.846 13.716 100.984 13.6801 101.068 13.6538C101.9 13.395 103.144 13.2055 104.014 13.2055H104.602L104.673 13.0297C104.711 12.9331 104.743 12.8018 104.743 12.738C104.743 12.6742 104.772 12.4042 104.807 12.1375C105.127 9.70006 105.028 1.53132 104.664 0.289253L104.59 0.0377944L104.109 0.0443565C103.844 0.0480313 103.243 0.074542 102.774 0.103153ZM65.7746 2.44371C65.7746 2.52797 65.7835 2.56236 65.7945 2.52036C65.8056 2.47836 65.8056 2.40933 65.7945 2.36733C65.7835 2.32507 65.7746 2.35946 65.7746 2.44371ZM65.8192 3.12197C65.8197 3.21804 65.8287 3.25242 65.8392 3.19783C65.8494 3.14349 65.8491 3.06475 65.8381 3.02301C65.8271 2.98102 65.8187 3.02564 65.8192 3.12197ZM65.8654 4.08423C65.8657 4.2286 65.8738 4.28241 65.8835 4.20392C65.8932 4.12518 65.893 4.00706 65.883 3.94144C65.873 3.87556 65.8651 3.93987 65.8654 4.08423ZM50.7653 4.45775C50.6296 4.57061 50.6907 4.5693 50.8346 4.45617C50.8957 4.40814 50.9285 4.36929 50.907 4.37008C50.8858 4.37086 50.822 4.41024 50.7653 4.45775ZM65.8712 6.5122C65.8712 7.19807 65.8772 7.47866 65.8846 7.1356C65.8919 6.79279 65.8919 6.23187 65.8846 5.8888C65.8772 5.546 65.8712 5.82659 65.8712 6.5122ZM47.3228 7.22195C47.2278 7.3238 47.1992 7.36789 47.2593 7.32038C47.4472 7.17208 47.5793 7.03717 47.5367 7.03717C47.5142 7.03717 47.4181 7.12037 47.3228 7.22195ZM46.3624 8.17477C46.244 8.29498 46.1611 8.39341 46.1781 8.39341C46.2091 8.39341 46.2427 8.36113 46.491 8.09418C46.6957 7.8737 46.5992 7.93433 46.3624 8.17477ZM65.8654 9.11524C65.8657 9.25961 65.8738 9.31342 65.8835 9.23467C65.8932 9.15619 65.893 9.03807 65.883 8.97219C65.873 8.90657 65.8651 8.97088 65.8654 9.11524ZM65.8192 10.0339C65.8197 10.1303 65.8287 10.1644 65.8392 10.1101C65.8494 10.0555 65.8491 9.97671 65.8381 9.93498C65.8271 9.89324 65.8187 9.9376 65.8192 10.0339ZM65.7746 10.7119C65.7746 10.7962 65.7835 10.8306 65.7945 10.7886C65.8056 10.7466 65.8056 10.6775 65.7945 10.6355C65.7835 10.5933 65.7746 10.6277 65.7746 10.7119ZM57.3709 15.8319C57.2355 15.9448 57.2966 15.9435 57.4405 15.8303C57.5016 15.7823 57.5342 15.7435 57.5129 15.7445C57.4917 15.7453 57.4279 15.7847 57.3709 15.8319ZM56.0625 16.9798C55.8645 17.1787 55.7026 17.3559 55.7026 17.3735C55.7026 17.3913 55.8611 17.248 56.0551 17.0556C56.2488 16.863 56.426 16.7055 56.4488 16.7055C56.4714 16.7055 56.49 16.6858 56.49 16.6616C56.49 16.5703 56.4118 16.6286 56.0625 16.9798ZM52.3055 26.1549C52.3055 26.3593 52.3131 26.4431 52.3223 26.3407C52.3315 26.2383 52.3315 26.0711 52.3223 25.9688C52.3131 25.8666 52.3055 25.9504 52.3055 26.1549ZM13.1048 26.111C13.1048 26.2192 13.1132 26.2635 13.1237 26.2094C13.1342 26.1554 13.1342 26.0667 13.1237 26.0126C13.1132 25.9585 13.1048 26.0026 13.1048 26.111ZM39.1341 26.111C39.1341 26.2192 39.1428 26.2635 39.1533 26.2094C39.1635 26.1554 39.1635 26.0667 39.1533 26.0126C39.1428 25.9585 39.1341 26.0026 39.1341 26.111ZM54.9151 33.9855C54.9913 34.0818 55.0634 34.1606 55.0755 34.1606C55.0876 34.1606 55.0351 34.0818 54.9587 33.9855C54.8826 33.8892 54.8104 33.8104 54.7983 33.8104C54.7863 33.8104 54.8388 33.8892 54.9151 33.9855ZM55.6149 34.8291C55.6149 34.8433 55.6763 34.9202 55.7511 35C55.826 35.0795 55.8672 35.1053 55.8425 35.0567C55.7963 34.9651 55.6149 34.7837 55.6149 34.8291ZM56.4024 35.6449C56.4024 35.6672 56.4664 35.7297 56.5446 35.7835L56.6869 35.8814L56.5583 35.7428C56.4197 35.5932 56.4024 35.5825 56.4024 35.6449ZM59.1584 37.6351C59.1584 37.6548 59.6409 37.9046 59.8039 37.9692C60.0173 38.0537 59.8839 37.9629 59.5472 37.7941C59.1865 37.6138 59.1584 37.6023 59.1584 37.6351ZM45.9474 43.6698C45.9471 43.6906 46.0256 43.7864 46.122 43.8827C46.3485 44.1092 46.3487 44.0633 46.1225 43.8197C46.0264 43.7163 45.9477 43.6488 45.9474 43.6698ZM46.5593 44.3166C46.5593 44.3565 47.1323 44.9326 47.1522 44.9129C47.1617 44.9035 47.032 44.7594 46.8643 44.593C46.6965 44.4266 46.5593 44.3021 46.5593 44.3166ZM7.75562 44.7171C7.75562 44.7247 7.81966 44.7888 7.89788 44.8594L8.03988 44.988L7.91153 44.8457C7.79184 44.7132 7.75562 44.6835 7.75562 44.7171ZM47.6092 45.3424C47.6092 45.3912 47.7845 45.5492 47.8102 45.5235C47.8197 45.5138 47.7785 45.4597 47.7184 45.4033C47.6585 45.3468 47.6092 45.3195 47.6092 45.3424ZM51.984 48.6166C51.984 48.6286 52.043 48.6691 52.1152 48.7063C52.1874 48.7439 52.2465 48.7643 52.2465 48.7525C52.2465 48.7405 52.1874 48.7 52.1152 48.6628C52.043 48.6252 51.984 48.6048 51.984 48.6166ZM54.3463 49.8618C54.4064 49.9111 54.4755 49.9513 54.4994 49.9516C54.5463 49.9518 54.4671 49.8914 54.3246 49.8177C54.2663 49.7875 54.2736 49.8025 54.3463 49.8618ZM64.79 52.2596C64.8677 52.2693 65.0055 52.2695 65.0963 52.2601C65.1869 52.2506 65.1234 52.2425 64.9551 52.2425C64.7866 52.2422 64.7123 52.2499 64.79 52.2596Z" fill="#4484F3"/>
<path id="path1" fill-rule="evenodd" clip-rule="evenodd" d="M63.9051 0.0845139C63.6885 0.103675 63.3832 0.123099 63.2268 0.127299C63.0704 0.131498 62.7654 0.161946 62.5488 0.194757C62.3323 0.227567 62.037 0.26379 61.8926 0.274814C61.7482 0.286101 61.4981 0.323373 61.3364 0.357759C61.175 0.391882 61.0343 0.411568 61.024 0.401331C61.0138 0.391094 60.8902 0.412355 60.749 0.448578C60.608 0.4848 60.4009 0.52496 60.2886 0.538085C60.1762 0.551209 60.0345 0.581132 59.9733 0.60423C59.9124 0.627329 59.7704 0.657514 59.6581 0.670901C59.5457 0.68455 59.4379 0.705286 59.4184 0.71736C59.399 0.729435 59.298 0.756208 59.194 0.776682C59.0903 0.797418 58.8478 0.858051 58.6554 0.911598C58.4627 0.965144 58.2856 1.01239 58.2617 1.01659C58.2375 1.02105 58.1932 1.03995 58.1632 1.05859C58.1331 1.07749 58.1084 1.08221 58.1084 1.06935C58.1084 1.05649 58.0543 1.06778 57.9882 1.09402C57.922 1.12053 57.8286 1.14652 57.7803 1.15203C57.7322 1.15728 57.6338 1.18615 57.5616 1.21608C57.4895 1.246 57.4007 1.27671 57.3648 1.28459C57.3286 1.2922 57.2401 1.32186 57.1679 1.35021C57.0957 1.37855 57.007 1.409 56.9711 1.41819C56.8067 1.4594 56.1222 1.70692 56.0064 1.76703C55.9353 1.80351 55.8773 1.82163 55.8773 1.80693C55.8773 1.79249 55.8114 1.8211 55.7311 1.87097C55.6505 1.92058 55.5733 1.95024 55.5597 1.93659C55.546 1.92294 55.4891 1.94106 55.4326 1.97675C55.3765 2.01245 55.173 2.10406 54.9806 2.18018C54.788 2.2563 54.6011 2.33609 54.5649 2.35788C54.4924 2.40145 54.1184 2.58571 54.0837 2.5949C54.0341 2.60803 53.5291 2.86158 53.432 2.92195C53.3742 2.95792 53.3002 2.99125 53.2677 2.99624C53.2351 3.00096 53.0808 3.08548 52.9243 3.18444C52.7679 3.28313 52.6401 3.35321 52.6401 3.33983C52.6401 3.3267 52.5314 3.3855 52.3986 3.47054C52.2658 3.55559 52.1419 3.62488 52.123 3.62488C52.1044 3.62488 52.0642 3.64956 52.0343 3.67974C52.0041 3.70967 51.9658 3.7346 51.949 3.73513C51.9322 3.73565 51.7962 3.81912 51.6471 3.92097C51.4983 4.02281 51.3605 4.10759 51.3411 4.10917C51.3216 4.11074 51.1878 4.19998 51.0434 4.3076C50.899 4.41522 50.7463 4.5147 50.7043 4.52861C50.6623 4.54252 50.6276 4.57114 50.6276 4.5924C50.6276 4.61366 50.6051 4.63124 50.5775 4.63124C50.5499 4.63124 50.4434 4.70001 50.3405 4.78427C50.2378 4.86853 50.1323 4.9373 50.1063 4.9373C50.0803 4.9373 50.0591 4.95279 50.0591 4.97168C50.0591 4.99058 49.995 5.04308 49.9168 5.08849C49.8386 5.1339 49.7585 5.19768 49.7391 5.23023C49.7197 5.26252 49.6861 5.27826 49.6648 5.26514C49.6433 5.25202 49.6037 5.28273 49.5764 5.33365C49.5491 5.38457 49.5171 5.41633 49.505 5.40399C49.4929 5.39192 49.4496 5.41502 49.4087 5.45518C49.3677 5.49508 49.2693 5.57723 49.1897 5.63734C49.1102 5.69745 49.0223 5.76648 48.9942 5.79037C48.9664 5.81452 48.8448 5.91137 48.7246 6.0056C48.6044 6.09984 48.4642 6.21795 48.4133 6.26809C48.3624 6.31822 48.2057 6.4576 48.0647 6.57782C47.3369 7.20043 46.2665 8.2732 45.7147 8.93386C42.2523 13.079 40.4391 16.896 39.5619 21.885C38.2151 29.5446 40.7003 37.9209 46.0486 43.7509C46.42 44.1559 47.4319 45.1849 47.4587 45.1849C47.4707 45.1849 47.577 45.2783 47.6949 45.3925C47.813 45.5069 48.0141 45.6891 48.1422 45.7972C48.27 45.9054 48.427 46.0482 48.4908 46.1143C48.5545 46.1805 48.6202 46.2348 48.637 46.2348C48.6635 46.2348 48.7685 46.3222 49.0071 46.5443C49.048 46.5823 49.1144 46.6259 49.1546 46.6414C49.1947 46.6569 49.2278 46.691 49.2278 46.7172C49.2278 46.7435 49.2478 46.7527 49.2719 46.7377C49.296 46.7227 49.3278 46.7411 49.3422 46.7787C49.3567 46.8165 49.3945 46.8472 49.4265 46.8472C49.4583 46.8472 49.4968 46.8868 49.5123 46.9354C49.5278 46.9837 49.5575 47.0128 49.5782 46.9999C49.5992 46.9871 49.632 47.002 49.6517 47.0335C49.6711 47.0648 49.81 47.1684 49.9601 47.264C50.1103 47.3595 50.2334 47.4525 50.2336 47.4706C50.2339 47.4887 50.2546 47.5034 50.2796 47.5034C50.3048 47.5034 50.4371 47.5871 50.5738 47.6892C50.8476 47.8939 51.0828 48.0467 51.22 48.1097C51.2691 48.132 51.3355 48.1822 51.3676 48.2207C51.3996 48.2593 51.4453 48.2908 51.4689 48.2908C51.4925 48.2908 51.5999 48.3504 51.7077 48.4231C51.8154 48.4958 51.9807 48.5945 52.075 48.6426C52.1692 48.6908 52.2464 48.7504 52.2464 48.7756C52.2464 48.8006 52.2611 48.8119 52.2792 48.8008C52.2973 48.7898 52.3907 48.8273 52.4871 48.8846C52.7745 49.0557 53.0099 49.1835 53.0412 49.1856C53.0572 49.1867 53.0845 49.2019 53.102 49.2195C53.133 49.2505 54.215 49.7909 54.2588 49.7972C54.2709 49.799 54.4184 49.866 54.5869 49.9458C54.7552 50.0258 54.952 50.1167 55.0242 50.1476C55.0964 50.1789 55.2145 50.2298 55.2867 50.261C55.3589 50.2923 55.4376 50.323 55.4618 50.3293C55.5896 50.3631 55.8151 50.461 55.8384 50.4928C55.8531 50.513 55.8786 50.5256 55.8951 50.5211C55.9251 50.5127 56.1303 50.5836 56.2931 50.6584C56.3411 50.6807 56.4227 50.7067 56.4747 50.7164C56.5264 50.7261 56.6298 50.7655 56.7044 50.8041C56.7789 50.8427 56.8398 50.8645 56.8398 50.8527C56.8398 50.8408 56.9285 50.8692 57.0367 50.9157C57.1448 50.9621 57.2335 50.9907 57.2335 50.9792C57.2335 50.9676 57.3007 50.9863 57.3832 51.0206C57.4653 51.055 57.544 51.0718 57.558 51.0577C57.5721 51.0437 57.5834 51.0561 57.5834 51.0852C57.5834 51.1144 57.6081 51.1333 57.6383 51.1275C57.6682 51.1214 57.7716 51.1443 57.868 51.1779C57.964 51.2115 58.0625 51.2409 58.0866 51.243C58.1336 51.2472 58.4278 51.3288 58.6772 51.4065C58.7614 51.433 58.8796 51.4603 58.9397 51.4674C58.9998 51.4745 59.1357 51.511 59.2418 51.5485C59.3478 51.5858 59.4431 51.6081 59.4534 51.5976C59.4639 51.5873 59.5699 51.6078 59.6893 51.6433C59.8088 51.6787 59.9697 51.7173 60.0466 51.7291C60.3177 51.77 60.3631 51.7792 60.5518 51.8312C60.6566 51.8601 60.7513 51.8748 60.7624 51.8637C60.7734 51.8525 60.9044 51.8721 61.0532 51.9076C61.202 51.9428 61.4322 51.9805 61.5645 51.9916C61.6968 52.0023 61.9233 52.0323 62.0677 52.0582C62.212 52.0842 62.458 52.1134 62.6144 52.1228C62.7709 52.1325 63.0956 52.163 63.3363 52.1908C63.577 52.2186 64.1429 52.2433 64.5941 52.2457L65.4146 52.2501L65.4036 45.7337L65.3923 39.217L64.9768 39.2042C64.7482 39.1971 64.3841 39.1695 64.1675 39.143C63.951 39.1165 63.6754 39.0869 63.5549 39.0771C63.4347 39.0672 63.1985 39.0291 63.0299 38.9926C62.8617 38.9559 62.6352 38.9063 62.527 38.8826C62.4186 38.8588 62.2711 38.8291 62.1989 38.8168C62.1267 38.8044 61.9889 38.7674 61.8926 38.7346C61.7128 38.6735 61.3926 38.5842 61.3354 38.5792C61.3178 38.5776 61.2143 38.5383 61.1057 38.4918C60.997 38.4451 60.9083 38.4157 60.9083 38.4262C60.9083 38.437 60.7655 38.3805 60.5912 38.301C60.4167 38.2215 60.2597 38.1522 60.2421 38.1469C60.0122 38.0781 59.2552 37.7114 59.0819 37.5847C59.0037 37.5277 58.9397 37.4952 58.9397 37.5125C58.9397 37.5301 58.8906 37.4981 58.8302 37.4416C58.7701 37.3849 58.721 37.355 58.721 37.3749C58.721 37.3949 58.6864 37.3833 58.6444 37.3495C58.6024 37.3154 58.499 37.2497 58.4147 37.2038C58.3304 37.1576 58.2517 37.108 58.2396 37.0933C58.2276 37.0786 58.0457 36.9505 57.8351 36.8088C57.6246 36.6668 57.4522 36.5347 57.4522 36.515C57.4522 36.4951 57.4328 36.4791 57.4089 36.4791C57.3616 36.4791 57.1852 36.34 57.0343 36.1838C56.9818 36.1297 56.9238 36.0854 56.9052 36.0854C56.8671 36.0854 56.8007 36.0229 56.118 35.3431C55.483 34.711 54.7163 33.8104 54.8129 33.8104C54.8316 33.8104 54.8032 33.78 54.7497 33.7424C54.6961 33.7049 54.6525 33.6459 54.6525 33.6112C54.6525 33.5766 54.6363 33.5479 54.6168 33.5479C54.5972 33.5479 54.5347 33.4645 54.4777 33.3621C54.421 33.2597 54.3628 33.1663 54.3486 33.1542C54.2977 33.112 54.152 32.8697 54.1601 32.8413C54.1646 32.8256 54.1396 32.7888 54.1042 32.7594C54.0688 32.73 54.0399 32.6804 54.0399 32.6489C54.0399 32.6174 54.0139 32.5657 53.9822 32.534C53.9097 32.4615 53.4275 31.4888 53.4275 31.415C53.4275 31.3851 53.4099 31.3607 53.3884 31.3607C53.3569 31.3607 53.2929 31.1932 53.2879 31.0982C53.2874 31.0861 53.2467 30.9977 53.1976 30.9013C53.1485 30.805 53.1089 30.7165 53.1097 30.7045C53.1102 30.6924 53.0918 30.6333 53.0685 30.5732C53.0451 30.5131 53.0196 30.4344 53.0115 30.3981C53.0036 30.3622 52.9658 30.2588 52.9275 30.1685C52.8889 30.0784 52.8674 30.0044 52.8795 30.0044C52.8915 30.0044 52.8635 29.9084 52.817 29.7905C52.7705 29.6729 52.7417 29.5677 52.7524 29.5569C52.7634 29.5459 52.7417 29.4503 52.7041 29.3443C52.6666 29.2382 52.6291 29.1023 52.6207 29.0422C52.6123 28.9821 52.576 28.8109 52.5398 28.6621C52.5036 28.5133 52.4815 28.3839 52.491 28.3747C52.5002 28.3655 52.4784 28.2216 52.4427 28.0547C52.2881 27.3323 52.2755 25.1614 52.4212 24.4049C52.4466 24.2726 52.4768 24.0678 52.4884 23.9497C52.4997 23.8319 52.5306 23.655 52.5571 23.5565C52.5836 23.4581 52.612 23.3282 52.6199 23.2678C52.628 23.2074 52.6655 23.0715 52.7033 22.9654C52.7414 22.8594 52.7629 22.7633 52.7516 22.752C52.7404 22.7407 52.76 22.662 52.7955 22.5772C52.8309 22.4924 52.8703 22.3646 52.8829 22.2932C52.8952 22.2218 52.9346 22.1076 52.9698 22.0396C53.0049 21.9714 53.0338 21.8929 53.0338 21.8654C53.0338 21.8378 53.0611 21.753 53.0942 21.6774C53.1981 21.4407 53.2622 21.2593 53.2467 21.2459C53.2385 21.2391 53.2745 21.1643 53.3265 21.08C53.3784 20.9957 53.4231 20.9125 53.4257 20.8947C53.4281 20.8771 53.4685 20.7734 53.5149 20.6645C53.5617 20.5556 53.6026 20.4519 53.606 20.4343C53.6094 20.4164 53.6451 20.3529 53.6853 20.2926C53.7257 20.2324 53.8034 20.0946 53.858 19.9865C53.9126 19.8781 53.9953 19.7306 54.042 19.6584C54.0885 19.5862 54.1402 19.4975 54.157 19.4615C54.2021 19.3636 54.3617 19.1379 54.4118 19.1011C54.441 19.0799 54.441 19.0686 54.4118 19.0678C54.3866 19.067 54.3887 19.0526 54.4166 19.0342C54.4433 19.0166 54.4979 18.9381 54.5381 18.8599C54.5783 18.7817 54.6302 18.7177 54.6536 18.7177C54.677 18.7177 54.6922 18.703 54.6869 18.6848C54.6746 18.6405 54.9665 18.2365 55.0108 18.2365C55.0303 18.2365 55.0463 18.2063 55.0463 18.1696C55.0463 18.1326 55.0757 18.0911 55.1119 18.0775C55.1478 18.0635 55.1775 18.0318 55.1775 18.0066C55.1775 17.9814 55.2463 17.894 55.3305 17.8124C55.4148 17.7305 55.4836 17.6462 55.4836 17.6252C55.4836 17.6039 55.5329 17.548 55.593 17.5005C55.6531 17.4533 55.7025 17.3966 55.7025 17.3745C55.7025 17.3257 56.538 16.4997 56.5563 16.5304C56.5634 16.5425 56.612 16.4981 56.6639 16.432C56.7162 16.3658 56.7744 16.3117 56.7939 16.3117C56.8133 16.3117 56.9088 16.2377 57.0065 16.1477C57.2264 15.9437 57.2511 15.924 57.543 15.7162C57.6735 15.6232 57.8183 15.5127 57.8645 15.4705C57.911 15.4285 57.9848 15.3825 58.0286 15.3686C58.0727 15.3547 58.1084 15.3272 58.1084 15.3077C58.1084 15.2881 58.143 15.2602 58.185 15.2461C58.227 15.2316 58.4192 15.1203 58.6116 14.9983C58.9683 14.7723 59.9925 14.2549 60.4272 14.0809C60.8637 13.9061 61.38 13.7202 61.3991 13.731C61.406 13.7349 61.5125 13.6979 61.6362 13.6494C61.76 13.6005 61.87 13.5696 61.8811 13.5806C61.8921 13.5916 61.9695 13.5719 62.0532 13.5368C62.1372 13.5019 62.2829 13.4638 62.3771 13.4522C62.4716 13.4407 62.6008 13.4113 62.6646 13.3869C62.7281 13.3625 62.8908 13.3323 63.0263 13.3197C63.1617 13.3074 63.2901 13.2861 63.3116 13.273C63.3704 13.2365 64.6479 13.1194 64.9986 13.1181C65.4482 13.1163 65.4868 13.0984 65.5687 12.8519C65.6075 12.7349 65.6301 12.6236 65.6186 12.605C65.6073 12.5866 65.6256 12.4139 65.6598 12.2212C65.6936 12.0288 65.7309 11.6548 65.7427 11.3902C65.7543 11.1253 65.7863 10.5938 65.8136 10.209C65.8792 9.28953 65.8784 3.88474 65.8125 2.94689C65.7855 2.56183 65.7553 2.04999 65.7451 1.80955C65.7351 1.56886 65.7057 1.24128 65.68 1.08169C65.654 0.921835 65.623 0.687175 65.6109 0.560396C65.5989 0.433354 65.5535 0.268777 65.5101 0.194494L65.4314 0.0595781L64.865 0.0545909C64.5537 0.0517036 64.1216 0.0650902 63.9051 0.0845139Z" fill="#34AC54"/>
<path id="path2" fill-rule="evenodd" clip-rule="evenodd" d="M24.292 0.0412299C24.1117 0.063016 23.7376 0.0995011 23.4607 0.1226C23.1841 0.145961 22.82 0.186645 22.6515 0.213419C22.483 0.240192 22.1483 0.291901 21.9079 0.328649C21.6672 0.365134 21.3325 0.423405 21.164 0.45779C20.5228 0.588769 20.1973 0.661477 20.0705 0.701899C19.9983 0.724998 19.8505 0.760433 19.7424 0.780907C19.634 0.80138 19.3978 0.860439 19.2174 0.911886C19.0368 0.963595 18.8203 1.02554 18.736 1.04969C18.6518 1.07384 18.514 1.10849 18.43 1.12686C18.3457 1.14523 18.2153 1.19248 18.1402 1.23159C18.0651 1.27096 17.9932 1.29249 17.9803 1.27962C17.9675 1.26703 17.8764 1.29774 17.778 1.34787C17.6793 1.39827 17.5987 1.43029 17.5987 1.419C17.5987 1.40772 17.4659 1.44814 17.3034 1.50903C17.1409 1.56967 16.9448 1.63818 16.8674 1.66127C16.7902 1.68437 16.7152 1.72243 16.701 1.74553C16.6866 1.76863 16.6446 1.78753 16.6076 1.78753C16.5706 1.78753 16.4682 1.81903 16.3805 1.85761C16.2926 1.8962 16.1813 1.94371 16.1333 1.96313C16.0115 2.01221 15.6345 2.17495 15.477 2.24609C15.2416 2.35265 13.6412 3.14483 13.574 3.18814C13.5378 3.2115 13.2919 3.3514 13.027 3.49892C12.7624 3.6467 12.5393 3.78476 12.5312 3.8055C12.5233 3.8265 12.4926 3.84382 12.463 3.84382C12.4336 3.84382 12.3666 3.88346 12.3144 3.93201C12.2622 3.98084 12.2097 4.02073 12.1976 4.02126C12.1485 4.02257 11.912 4.17429 11.9117 4.20473C11.9117 4.22258 11.891 4.23754 11.8661 4.23754C11.8144 4.23754 11.5472 4.41735 11.5251 4.46722C11.5172 4.48507 11.4912 4.50003 11.4679 4.50003C11.4314 4.50003 11.1306 4.70765 10.9618 4.84939C10.9329 4.8738 10.8975 4.89375 10.8836 4.89375C10.8571 4.89375 10.7828 4.95019 10.6434 5.07591C10.5991 5.11608 10.5516 5.13786 10.5382 5.12447C10.5248 5.11083 10.5014 5.13235 10.4862 5.17172C10.471 5.21136 10.4332 5.24364 10.4022 5.24364C10.3712 5.24364 10.3347 5.2733 10.3208 5.30926C10.3069 5.34549 10.2673 5.37488 10.2324 5.37488C10.1975 5.37488 10.1623 5.39037 10.1544 5.40953C10.1463 5.42843 9.9523 5.59274 9.72289 5.77438C9.49375 5.95602 9.25436 6.15209 9.19084 6.2101C9.12732 6.26811 8.94122 6.43348 8.77717 6.57784C8.61312 6.72221 8.35116 6.96343 8.19472 7.11383C8.03854 7.26424 7.89418 7.38734 7.87423 7.38734C7.85428 7.38734 7.85008 7.40703 7.86504 7.43091C7.87974 7.45506 7.87265 7.47475 7.84903 7.47475C7.82567 7.47475 7.73091 7.55139 7.63878 7.64536C7.23876 8.05247 6.83952 8.47901 6.6172 8.73676C6.48543 8.88953 6.3366 9.05673 6.28673 9.1087C6.23686 9.16041 6.09906 9.32 5.98041 9.46332C5.86203 9.60663 5.73919 9.75415 5.70743 9.79142C5.67567 9.82843 5.50348 10.0557 5.32473 10.2964C5.14624 10.5371 4.98009 10.7576 4.95594 10.7868C4.93179 10.8159 4.91211 10.86 4.91211 10.8852C4.91211 10.9104 4.89662 10.9309 4.87772 10.9309C4.85882 10.9309 4.80895 10.9891 4.76669 11.0605C4.7247 11.1317 4.66564 11.2154 4.63545 11.2464C4.60527 11.2773 4.53308 11.3813 4.47534 11.4776C4.41733 11.5739 4.35801 11.6624 4.34331 11.6745C4.32861 11.6865 4.26929 11.775 4.21128 11.8713C4.15353 11.9677 4.08187 12.0711 4.05248 12.1013C4.02308 12.1315 3.98659 12.1955 3.97137 12.2435C3.95614 12.2913 3.92543 12.3307 3.90286 12.3307C3.88055 12.3307 3.86218 12.3491 3.86218 12.3714C3.86218 12.4105 3.56085 12.9423 3.51334 12.9869C3.50074 12.999 3.43853 13.1071 3.37527 13.2276C3.31201 13.3478 3.18576 13.584 3.09494 13.7526C2.82563 14.2513 2.39358 15.1358 2.20827 15.5679C2.16181 15.6763 2.08359 15.8535 2.03451 15.9616C1.98516 16.07 1.88227 16.3259 1.80588 16.5304C1.7295 16.7349 1.63711 16.9577 1.60089 17.0257C1.56466 17.0934 1.54681 17.1606 1.56125 17.1753C1.57569 17.1898 1.56125 17.2425 1.52923 17.2924C1.47411 17.3788 1.33184 17.7819 1.30165 17.9371C1.29404 17.9767 1.25677 18.0693 1.21871 18.1426C1.18091 18.2161 1.14968 18.3153 1.14968 18.3636C1.14968 18.4116 1.13262 18.4964 1.11162 18.5515C1.09062 18.6069 1.04048 18.7702 1.00006 18.9145C0.95964 19.0589 0.897956 19.2684 0.863046 19.3799C0.828398 19.4915 0.799788 19.6206 0.799788 19.6673C0.799788 19.7141 0.771964 19.8393 0.737842 19.9458C0.656472 20.2007 0.466959 21.1015 0.347529 21.8019C-0.061944 24.2017 -0.112341 27.0405 0.211038 29.5233C0.299233 30.2008 0.399764 30.8045 0.475096 31.1084C0.509219 31.2465 0.537305 31.4022 0.537305 31.4547C0.537305 31.5069 0.565653 31.65 0.600038 31.7725C0.634686 31.8948 0.696107 32.1526 0.736529 32.345C0.777214 32.5374 0.83496 32.7639 0.865146 32.8482C0.895331 32.9322 0.942841 33.0897 0.970926 33.1981C0.999012 33.3062 1.05807 33.5343 1.10217 33.7047C1.14627 33.8748 1.20585 34.0582 1.23472 34.112C1.26359 34.1658 1.29457 34.2488 1.30375 34.2966C1.33578 34.4627 1.47752 34.8764 1.62005 35.22C1.66204 35.3216 1.69695 35.415 1.69722 35.4279C1.69774 35.4546 1.78987 35.6977 1.87177 35.8885C1.90274 35.9607 1.94868 36.0691 1.97387 36.1292C2.11089 36.455 2.2214 36.7056 2.3403 36.9602C2.51459 37.334 3.01304 38.3351 3.1351 38.5572C3.18812 38.6533 3.2897 38.8404 3.36083 38.9727C3.43197 39.105 3.53643 39.2822 3.59313 39.3664C3.64956 39.4507 3.71387 39.5588 3.73592 39.6071C3.75797 39.6552 3.81467 39.7536 3.86218 39.8258C3.90969 39.898 3.97163 40.0014 3.99998 40.0554C4.02807 40.1095 4.0677 40.1539 4.08791 40.1539C4.10812 40.1539 4.12466 40.1725 4.12466 40.1953C4.12466 40.2182 4.18372 40.3245 4.2559 40.4313C4.32808 40.5384 4.38714 40.6476 4.38714 40.6744C4.38714 40.7009 4.40473 40.7227 4.42651 40.7227C4.44804 40.7227 4.50683 40.7917 4.55671 40.8765C4.60658 40.961 4.66852 41.0545 4.69451 41.0841C4.72023 41.1138 4.83966 41.276 4.95988 41.4445C5.07983 41.6128 5.24126 41.828 5.31843 41.9225C5.3956 42.017 5.5376 42.2047 5.63394 42.3396C5.73 42.4745 5.84812 42.6249 5.89642 42.6737C5.94445 42.7225 6.08226 42.8777 6.20247 43.0183C6.32295 43.159 6.45577 43.3102 6.49777 43.3546C6.54003 43.3987 6.57441 43.4441 6.57441 43.4554C6.57441 43.5155 7.62933 44.5851 8.34512 45.2505C8.60393 45.4909 8.84778 45.7183 8.88715 45.7553C8.92652 45.7923 9.08664 45.9301 9.24308 46.0616C9.39925 46.1928 9.55254 46.3243 9.58352 46.3535C9.61423 46.3826 9.72762 46.4695 9.83498 46.5466C9.94259 46.6238 10.0305 46.7034 10.0305 46.7233C10.0305 46.7432 10.0578 46.7598 10.0914 46.7598C10.125 46.7598 10.1641 46.7905 10.1786 46.828C10.193 46.8658 10.2237 46.8847 10.2465 46.8706C10.2696 46.8564 10.3109 46.8863 10.3379 46.9372C10.3652 46.9881 10.3975 47.0199 10.4096 47.0076C10.4216 46.9955 10.4678 47.0186 10.5122 47.0588C10.6663 47.1976 10.7269 47.2409 10.7686 47.2409C10.7917 47.2409 10.8172 47.2564 10.8251 47.2753C10.8332 47.2942 11.007 47.4265 11.2117 47.569C11.4162 47.7115 11.5899 47.8438 11.5981 47.8627C11.6059 47.8816 11.6296 47.8971 11.6506 47.8971C11.6713 47.8971 11.7731 47.9533 11.8766 48.0218C12.5107 48.4423 12.9932 48.7371 13.1793 48.8179C13.2391 48.8439 13.2982 48.8785 13.3105 48.8951C13.3315 48.9224 13.4486 48.9885 13.7489 49.1426C13.8092 49.1733 13.9371 49.2389 14.0334 49.2883C14.7035 49.6313 15.4025 49.9626 15.8159 50.1329C16.1629 50.2757 16.4306 50.3923 16.5154 50.4377C16.5572 50.46 16.627 50.4781 16.6706 50.4781C16.7144 50.4781 16.7687 50.4947 16.7916 50.5149C16.8661 50.5805 17.9286 50.9545 18.0475 50.9569C18.0659 50.9574 18.1407 50.9886 18.214 51.0264C18.2875 51.0645 18.4003 51.1026 18.4652 51.111C18.53 51.1196 18.6421 51.1495 18.7142 51.1776C18.8933 51.2472 20.155 51.5742 20.3986 51.6141C20.5067 51.632 20.6839 51.6679 20.7923 51.6939C23.3182 52.3016 27.4035 52.4108 30.0527 51.9415C30.2493 51.9065 30.4533 51.8782 30.5058 51.8782C30.558 51.8782 30.7415 51.8475 30.9134 51.81C31.0853 51.7724 31.3735 51.7115 31.5541 51.6745C32.035 51.5763 32.4311 51.4782 33.2164 51.2627C33.397 51.2133 33.6133 51.1577 33.6976 51.1393C33.7818 51.1209 33.8976 51.0808 33.9545 51.0501C34.0118 51.0194 34.1005 50.9879 34.1514 50.98C34.2934 50.9585 34.6354 50.8432 34.7814 50.7676C34.853 50.7306 34.9231 50.7123 34.9375 50.7264C34.952 50.7409 35.0126 50.7204 35.0727 50.681C35.1328 50.6416 35.2171 50.6088 35.2601 50.608C35.3029 50.6073 35.3764 50.5779 35.4231 50.5424C35.4698 50.507 35.5357 50.4781 35.5696 50.4781C35.6268 50.4781 35.6914 50.4534 36.1037 50.2736C36.188 50.2372 36.3158 50.1823 36.388 50.1518C36.4602 50.1217 36.5686 50.0757 36.6287 50.0497C36.6888 50.024 37.1064 49.8245 37.5569 49.6061C38.007 49.388 38.3929 49.2095 38.4139 49.2095C38.4351 49.2095 38.4884 49.1702 38.532 49.1219C38.5755 49.0736 38.6196 49.0423 38.6299 49.0526C38.6532 49.0759 39.4827 48.5956 39.5263 48.5336C39.5438 48.5084 39.5588 48.5056 39.5591 48.5273C39.5596 48.5491 39.5942 48.5373 39.6362 48.5011C39.6785 48.4649 39.7423 48.4223 39.7785 48.4063C39.8145 48.3903 39.9032 48.3384 39.9754 48.2908C40.0476 48.2433 40.151 48.1811 40.205 48.153C40.2591 48.125 40.3035 48.0898 40.3035 48.0751C40.3035 48.0604 40.3772 48.0095 40.4675 47.9622C40.5578 47.9147 40.6413 47.8651 40.6534 47.8517C40.6654 47.8383 40.8426 47.7108 41.0471 47.5685C41.2516 47.4262 41.4256 47.2942 41.4337 47.2753C41.4416 47.2564 41.476 47.2409 41.5101 47.2409C41.5442 47.2409 41.572 47.2212 41.572 47.1971C41.572 47.1732 41.5978 47.1535 41.6293 47.1535C41.6605 47.1535 41.7584 47.0874 41.8469 47.0065C41.9351 46.9257 42.0172 46.8692 42.0293 46.8813C42.0414 46.8937 42.0637 46.8711 42.0789 46.8317C42.0941 46.7921 42.122 46.7598 42.1411 46.7598C42.1742 46.7598 42.3689 46.6052 42.5411 46.4424C42.5855 46.4004 42.6417 46.3661 42.6658 46.3661C42.69 46.3661 42.7097 46.3503 42.7097 46.3311C42.7097 46.312 42.8031 46.2243 42.9173 46.1361C43.3254 45.8217 44.0712 45.1292 44.7389 44.4449C45.4838 43.6816 45.5224 43.6407 45.6311 43.5026L45.7282 43.3793L45.4951 43.1118C40.7473 37.6655 38.5068 30.1703 39.4307 22.8258C40.0633 17.7969 42.2766 12.8617 45.592 9.08744L45.7699 8.88481L45.5865 8.67193C45.1492 8.16429 44.1735 7.18785 43.6501 6.73376C43.5058 6.60855 43.3811 6.48781 43.3729 6.4655C43.3651 6.44319 43.3394 6.42481 43.316 6.42481C43.2926 6.42481 43.2204 6.36917 43.1556 6.30119C43.0908 6.23346 42.9393 6.10039 42.8191 6.00589C42.6986 5.9114 42.5726 5.80798 42.5388 5.77596C42.5052 5.74393 42.3674 5.6371 42.2327 5.53867C42.0978 5.43998 41.9721 5.33341 41.9527 5.30139C41.9335 5.26963 41.8912 5.24364 41.8589 5.24364C41.8267 5.24364 41.7878 5.21136 41.7726 5.17172C41.7574 5.13235 41.734 5.11083 41.7206 5.12447C41.6978 5.14705 41.6017 5.08195 41.461 4.94835C41.4293 4.91816 41.3839 4.89375 41.3602 4.89375C41.3363 4.89375 41.3104 4.87879 41.3025 4.86094C41.2943 4.84283 41.2188 4.77931 41.1348 4.71946C40.8843 4.54229 40.0323 3.97506 40.0163 3.97506C40.0082 3.97506 39.9142 3.916 39.8071 3.84382C39.7003 3.77164 39.5908 3.71258 39.5643 3.71258C39.5378 3.71258 39.516 3.69657 39.516 3.67741C39.516 3.64722 39.227 3.48264 38.7401 3.23538C38.6737 3.20179 38.6094 3.16058 38.5973 3.1443C38.5853 3.12803 38.4181 3.03957 38.2254 2.94797C38.033 2.85636 37.8655 2.76764 37.8537 2.75058C37.8416 2.73352 37.7776 2.70648 37.7115 2.69021C37.6453 2.6742 37.5912 2.64165 37.5912 2.61802C37.5912 2.5944 37.5631 2.57498 37.529 2.57498C37.4949 2.57498 37.3721 2.52799 37.2558 2.47025C37.1395 2.41276 36.9458 2.32326 36.8256 2.27181C36.7054 2.2201 36.5531 2.14818 36.4875 2.11196C36.4221 2.076 36.3631 2.05054 36.3563 2.05552C36.3447 2.06419 36.1339 1.97704 35.863 1.85157C35.7909 1.81798 35.6775 1.77782 35.6111 1.76233C35.5447 1.74684 35.4796 1.71666 35.4664 1.6954C35.4533 1.67387 35.4034 1.65629 35.3559 1.65629C35.3084 1.65629 35.2218 1.62505 35.1635 1.58699C35.1053 1.54893 35.0407 1.5282 35.02 1.54106C34.999 1.55392 34.9189 1.5261 34.842 1.47911C34.7648 1.43213 34.6732 1.3938 34.6386 1.3938C34.6039 1.3938 34.511 1.36624 34.432 1.33265C34.353 1.29879 34.17 1.2371 34.0257 1.1951C33.8813 1.15337 33.7141 1.10376 33.654 1.08512C33.5535 1.05363 33.4248 1.01767 32.8009 0.846528C32.4439 0.748621 32.0662 0.655965 31.9258 0.632079C31.8536 0.620005 31.5583 0.562258 31.2696 0.503987C30.3275 0.314212 29.6241 0.210006 28.3823 0.0761401C27.7948 0.0128817 24.7461 -0.0131041 24.292 0.0412299ZM27.3106 13.1415C27.6836 13.179 28.1195 13.2381 28.2794 13.2733C28.439 13.3082 28.6146 13.3368 28.6692 13.3368C28.7238 13.3368 28.8687 13.3651 28.991 13.3995C29.1133 13.4342 29.3414 13.4953 29.4978 13.5357C29.9842 13.6615 30.1748 13.7229 30.7446 13.9376C31.0483 14.052 31.0872 14.0683 31.4336 14.2271C31.6203 14.3127 31.7728 14.3723 31.7728 14.3597C31.7728 14.3473 31.8271 14.3728 31.8933 14.4166C32.0641 14.5295 32.1484 14.5775 32.4946 14.7602C32.6631 14.8492 32.8303 14.945 32.8665 14.9736C32.9025 15.0022 33.0059 15.0634 33.0962 15.1099C33.1862 15.1563 33.2603 15.2093 33.2603 15.228C33.2603 15.2466 33.2821 15.2618 33.3086 15.2618C33.3351 15.2618 33.4314 15.3209 33.5227 15.3931C33.6138 15.4653 33.7018 15.5243 33.718 15.5243C33.7343 15.5243 33.7737 15.5487 33.8052 15.5789C33.9007 15.6695 34.0475 15.7868 34.0656 15.7868C34.0892 15.7868 34.3399 15.9999 34.5141 16.1679C34.5945 16.2454 34.6601 16.2968 34.6601 16.2818C34.6601 16.2671 34.7071 16.3023 34.7646 16.3601C34.822 16.4175 35.078 16.6693 35.3334 16.9189C35.5885 17.1688 35.7974 17.3788 35.7974 17.3861C35.7974 17.3932 35.8686 17.4743 35.9554 17.5662C36.0423 17.6583 36.1736 17.8171 36.2473 17.9195C36.3208 18.0216 36.3985 18.1053 36.42 18.1053C36.4413 18.1053 36.4465 18.1253 36.4316 18.1494C36.4166 18.1736 36.435 18.2053 36.4725 18.2195C36.5101 18.2339 36.5838 18.3224 36.6366 18.4161C36.6893 18.5098 36.7484 18.5864 36.7681 18.5864C36.7875 18.5864 36.8038 18.6069 36.8038 18.6321C36.8038 18.6573 36.8245 18.7014 36.8497 18.7305C36.8752 18.7597 36.9776 18.9114 37.0773 19.0678C37.177 19.224 37.2694 19.3618 37.2828 19.3739C37.3272 19.4146 37.9335 20.5929 38.0028 20.774C38.0167 20.8099 38.0461 20.869 38.0684 20.9052C38.134 21.012 38.2474 21.2863 38.2474 21.3388C38.2474 21.3656 38.265 21.4218 38.2866 21.4635C38.3238 21.5357 38.3876 21.7026 38.5078 22.0426C38.5375 22.1268 38.5818 22.2843 38.606 22.3924C38.6304 22.5008 38.6679 22.6082 38.6895 22.631C38.711 22.6539 38.7286 22.7111 38.7286 22.7583C38.7286 22.8056 38.7567 22.9444 38.791 23.0668C38.8787 23.3791 38.995 23.9348 38.9987 24.0595C39.0005 24.1172 39.0302 24.3267 39.0648 24.5251C39.158 25.0608 39.1548 27.177 39.0601 27.7161C39.021 27.9371 38.9942 28.134 39.0005 28.1537C39.0302 28.2476 38.6887 29.6496 38.5257 30.1031C38.4931 30.1934 38.4682 30.2777 38.4698 30.2903C38.4732 30.3158 38.2726 30.8583 38.1713 31.0982C38.0708 31.336 37.9752 31.5513 37.9382 31.6232C37.9196 31.6594 37.7996 31.8954 37.6716 32.1481C37.5435 32.4007 37.4141 32.6335 37.3836 32.6652C37.3534 32.697 37.3288 32.7411 37.3288 32.7634C37.3288 32.7855 37.2408 32.9317 37.1337 33.0884C37.0264 33.2448 36.9508 33.3732 36.9655 33.3732C36.9802 33.3732 36.9497 33.4099 36.898 33.4548C36.846 33.4997 36.8038 33.5572 36.8038 33.5824C36.8038 33.6075 36.7888 33.6348 36.771 33.6427C36.7529 33.6509 36.661 33.7705 36.5668 33.9089C36.4725 34.0472 36.3791 34.1606 36.3589 34.1606C36.3389 34.1606 36.3224 34.19 36.3224 34.2262C36.3224 34.2622 36.3022 34.2918 36.2772 34.2918C36.2526 34.2918 36.2213 34.3202 36.208 34.3548C36.1691 34.4567 35.8552 34.8003 35.3163 35.3318C34.7538 35.8862 34.7344 35.9043 34.3976 36.1757C34.2653 36.2825 34.1175 36.4059 34.0695 36.45C34.0215 36.4941 33.9278 36.5586 33.8616 36.5933C33.7955 36.6279 33.7414 36.6733 33.7414 36.6938C33.7414 36.7146 33.707 36.7432 33.6647 36.7579C33.5962 36.7815 33.0907 37.1159 32.9726 37.2159C32.9466 37.238 32.8826 37.2695 32.8303 37.286C32.7781 37.3025 32.7353 37.3359 32.7353 37.3595C32.7353 37.3834 32.7172 37.3918 32.6949 37.3781C32.6728 37.3645 32.6285 37.3789 32.5964 37.4101C32.4899 37.5141 31.2244 38.1414 31.121 38.1414C31.0985 38.1414 31.0242 38.1695 30.9562 38.2036C30.7509 38.3065 30.2509 38.4895 29.8916 38.5929C29.2941 38.7651 28.7962 38.8848 28.4917 38.9294C28.3594 38.9488 28.1232 38.9853 27.9668 39.0105C26.8811 39.1858 25.3905 39.1856 24.292 39.01C24.1356 38.985 23.8993 38.9488 23.767 38.9294C23.1688 38.8417 21.3861 38.3118 21.2538 38.1821C21.2309 38.1598 21.1863 38.1414 21.1543 38.1414C21.0963 38.1414 20.6774 37.9545 20.3109 37.765C20.2028 37.7091 20.0206 37.6196 19.9064 37.5661C19.792 37.5125 19.6986 37.4558 19.6986 37.4401C19.6986 37.424 19.6148 37.3739 19.5127 37.3285C19.4104 37.2831 19.3069 37.2301 19.283 37.2109C19.2589 37.1918 19.1111 37.0894 18.9549 36.9833C18.4027 36.6088 18.2153 36.477 18.1588 36.4235C18.1273 36.3938 17.9935 36.2817 17.8612 36.1749C17.4226 35.82 16.5425 34.9641 16.2645 34.6215C16.1682 34.5029 16.055 34.3703 16.0128 34.327C15.9708 34.2834 15.9364 34.2283 15.9364 34.2042C15.9364 34.1803 15.9199 34.1606 15.8999 34.1606C15.8797 34.1606 15.7863 34.0472 15.692 33.9089C15.5978 33.7705 15.5059 33.6509 15.4878 33.6427C15.47 33.6348 15.455 33.602 15.455 33.57C15.455 33.5377 15.4403 33.5049 15.4219 33.497C15.376 33.4768 14.93 32.8109 14.93 32.7624C14.93 32.7408 14.9054 32.697 14.8752 32.6652C14.8447 32.6335 14.7132 32.3949 14.5828 32.1348C14.4523 31.8749 14.3295 31.6523 14.3098 31.6402C14.2901 31.6279 14.2738 31.5885 14.2738 31.5523C14.2738 31.5161 14.2279 31.3843 14.1715 31.2596C14.0806 31.0588 14.0247 30.9226 13.8746 30.5365C13.6111 29.8593 13.362 28.8338 13.2005 27.7618C13.1011 27.1019 13.1011 25.1202 13.2005 24.4603C13.2869 23.8865 13.3903 23.3353 13.4452 23.1557C13.4675 23.0822 13.5048 22.9347 13.5278 22.8276C13.6113 22.4397 13.8153 21.8181 13.9956 21.4016C14.0284 21.3257 14.0557 21.2373 14.0565 21.2047C14.0573 21.1722 14.0861 21.1084 14.1208 21.0627C14.1554 21.017 14.1746 20.9651 14.1636 20.9475C14.1526 20.9296 14.173 20.8908 14.2087 20.8609C14.2447 20.8312 14.2738 20.7818 14.2738 20.7511C14.2738 20.6845 14.9127 19.4316 14.976 19.3739C14.9894 19.3618 15.0817 19.224 15.1815 19.0678C15.2812 18.9114 15.3836 18.7597 15.4091 18.7305C15.4343 18.7014 15.455 18.6657 15.455 18.6507C15.455 18.636 15.4797 18.598 15.5099 18.5665C15.6303 18.4394 15.7175 18.3211 15.7175 18.2846C15.7175 18.2633 15.75 18.2334 15.7894 18.2184C15.829 18.2032 15.8508 18.1801 15.838 18.1673C15.8248 18.1544 15.8566 18.0977 15.908 18.0413C16.0773 17.8562 16.2424 17.6572 16.2424 17.6383C16.2424 17.6281 16.2918 17.5743 16.3519 17.5187C16.412 17.4627 16.4614 17.4068 16.4614 17.394C16.4614 17.3281 17.6554 16.2086 18.0363 15.9175C18.1444 15.8348 18.2428 15.7566 18.2549 15.7437C18.3 15.6957 18.914 15.2618 18.9368 15.2618C18.95 15.2618 19.0235 15.2175 19.0998 15.1631C19.2765 15.0382 19.3912 14.9668 19.5017 14.9122C19.5497 14.8886 19.7072 14.8004 19.8516 14.7164C20.1177 14.5615 20.4871 14.3773 20.9236 14.1814C21.1868 14.0633 21.2532 14.0358 21.5142 13.9376C22.1404 13.7016 22.4103 13.6147 22.641 13.5743C22.7315 13.5586 22.8163 13.5281 22.8295 13.5069C22.8428 13.4856 22.9048 13.468 22.9675 13.468C23.03 13.468 23.1814 13.4402 23.3038 13.4058C24.3017 13.1265 26.0273 13.0126 27.3106 13.1415Z" fill="#EB4434"/>
</g>
</svg>
